<svg width="114" height="42" viewBox="0 0 114 42" fill="none" xmlns="http://www.w3.org/2000/svg">
<path d="M5.58045 3.17804V16.6667C5.58045 18.0176 5.91926 19.0561 6.59289 19.7822C7.26653 20.5084 8.25905 20.8754 9.56646 20.8754C10.8739 20.8754 11.8744 20.5123 12.5719 19.7822C13.2695 19.0522 13.6163 18.0137 13.6163 16.6667V3.17804H19.2007V16.6355C19.2007 18.65 18.7662 20.3522 17.8932 21.7421C17.0562 23.1046 15.8365 24.1978 14.3816 24.8888C12.9107 25.5954 11.2725 25.9507 9.46681 25.9507C7.66115 25.9507 6.04283 25.6032 4.61583 24.9083C3.19283 24.2173 2.01695 23.1202 1.23968 21.7616C0.410588 20.36 -0.00395754 18.65 2.84719e-05 16.6394V3.17804H5.58045Z" fill="white"/>
<path d="M28.1453 21.1994H36.0496V25.7282H21.9072V21.3595L29.4846 12.3332H21.975V7.8044H35.8862V12.1731L28.1453 21.1994Z" fill="white"/>
<path fill-rule="evenodd" clip-rule="evenodd" d="M56.8094 2.02696C56.9763 1.64084 57.2116 1.29137 57.5026 1.00277C58.1553 0.33588 59.0017 0.000137329 60.0375 0.000137329C61.048 0.000137329 61.8818 0.33588 62.5386 1.00277C62.8586 1.32011 63.1071 1.71104 63.2797 2.14337C63.4481 2.5757 63.5323 3.04482 63.5197 3.51853C63.5281 3.98305 63.4439 4.44758 63.2755 4.8753C63.1071 5.30303 62.8544 5.68476 62.5386 5.99751C62.2881 6.25351 62.0109 6.46072 61.707 6.61886C61.8076 6.78715 61.9046 6.95829 61.9978 7.13218C63.1498 9.24457 63.7203 11.6797 63.7203 14.4492C63.7203 17.2188 63.1387 19.6539 61.9757 21.7663C60.8514 23.8318 59.2009 25.5158 57.2071 26.6189C55.1966 27.7455 52.948 28.3088 50.4723 28.3088C47.9966 28.3088 45.7646 27.7455 43.7818 26.6189H43.7929C41.8323 25.5158 40.2151 23.8435 39.1184 21.7898C37.9831 19.7009 37.4126 17.254 37.4126 14.4492C37.4126 11.6445 37.9886 9.24457 39.1351 7.13218C40.2427 5.07261 41.8766 3.38857 43.8538 2.27957C45.8477 1.15296 48.0908 0.589662 50.5664 0.589662C52.8496 0.589662 54.9349 1.06876 56.8094 2.02696ZM55.8335 14.4551C55.8335 16.6086 55.3129 18.2691 54.2717 19.4251C53.7898 19.9825 53.2027 20.4285 52.5492 20.7277C51.8957 21.027 51.1867 21.1795 50.4778 21.1678C49.78 21.1854 49.0821 21.0387 48.4452 20.7395C47.8083 20.4402 47.2378 19.9943 46.7781 19.431C45.7978 18.275 45.3049 16.6496 45.3049 14.461C45.3049 12.2723 45.8034 10.6059 46.8003 9.46167C47.7972 8.31747 49.0544 7.7483 50.5664 7.7483C51.2698 7.73656 51.9677 7.88325 52.6157 8.18251C53.2637 8.48176 53.8397 8.92771 54.3104 9.48515C55.324 10.6411 55.8335 12.3017 55.8335 14.4551Z" fill="url(#paint0_linear_49_1316)"/>
<path d="M65.8191 25.1028V11.821C65.8191 10.7097 66.0924 9.71673 66.6389 8.84221C67.1855 7.94947 67.9325 7.24803 68.8799 6.7379C69.8455 6.22776 70.9387 5.97269 72.1594 5.97269H79.7294V10.5913H73.0612C72.6786 10.5913 72.3598 10.7188 72.1047 10.9739C71.8496 11.2289 71.7221 11.5478 71.7221 11.9304V14.0347H78.8549V18.5439H71.7221V25.1028H65.8191ZM82.4162 25.1028V10.9465H87.6633V25.1028H82.4162ZM85.0397 9.4981C84.2745 9.4981 83.6186 9.22481 83.0721 8.67824C82.5255 8.11344 82.2522 7.45755 82.2522 6.71057C82.2522 5.94536 82.5255 5.28947 83.0721 4.7429C83.6186 4.1781 84.2745 3.8957 85.0397 3.8957C85.8049 3.8957 86.4608 4.1781 87.0074 4.7429C87.554 5.28947 87.8273 5.94536 87.8273 6.71057C87.8273 7.45755 87.554 8.11344 87.0074 8.67824C86.4608 9.22481 85.8049 9.4981 85.0397 9.4981ZM105.546 25.4581C104.38 25.4581 103.277 25.2213 102.239 24.7476C101.219 24.2556 100.39 23.5451 99.752 22.6159C99.1143 21.6867 98.7955 20.5571 98.7955 19.2271V11.821C98.7955 11.5842 98.7409 11.3838 98.6315 11.2198C98.5404 11.0376 98.4129 10.901 98.2489 10.8099C98.085 10.7188 97.8937 10.6732 97.675 10.6732C97.4564 10.6732 97.256 10.7188 97.0738 10.8099C96.9098 10.901 96.7732 11.0376 96.6639 11.2198C96.5728 11.3838 96.5272 11.5842 96.5272 11.821V25.1028H90.8975V11.8757C90.8975 10.5457 91.2072 9.41612 91.8267 8.48694C92.4643 7.55776 93.3024 6.84721 94.3409 6.35529C95.3794 5.86337 96.4908 5.61742 97.675 5.61742C98.8593 5.61742 99.9615 5.86337 100.982 6.35529C102.002 6.84721 102.831 7.55776 103.469 8.48694C104.106 9.41612 104.425 10.5457 104.425 11.8757V19.2818C104.425 19.5187 104.48 19.7282 104.589 19.9104C104.699 20.0926 104.835 20.2292 104.999 20.3203C105.163 20.4114 105.336 20.4569 105.518 20.4569C105.719 20.4569 105.91 20.4114 106.092 20.3203C106.274 20.2292 106.42 20.0926 106.53 19.9104C106.639 19.7282 106.694 19.5187 106.694 19.2818V5.97269H112.296V19.2271C112.296 20.5571 111.977 21.6867 111.339 22.6159C110.702 23.5451 109.864 24.2556 108.825 24.7476C107.805 25.2213 106.712 25.4581 105.546 25.4581Z" fill="white"/>
<path d="M5.25724 35.3088H4.56958C4.52892 35.111 4.45775 34.9372 4.35608 34.7875C4.25626 34.6377 4.13425 34.512 3.99007 34.4104C3.84773 34.3068 3.68968 34.2292 3.51592 34.1774C3.34215 34.1257 3.161 34.0998 2.97245 34.0998C2.62862 34.0998 2.31714 34.1867 2.03801 34.3605C1.76073 34.5342 1.53983 34.7902 1.37531 35.1285C1.21264 35.4668 1.1313 35.8818 1.1313 36.3735C1.1313 36.8652 1.21264 37.2802 1.37531 37.6185C1.53983 37.9568 1.76073 38.2128 2.03801 38.3866C2.31714 38.5603 2.62862 38.6472 2.97245 38.6472C3.161 38.6472 3.34215 38.6213 3.51592 38.5696C3.68968 38.5178 3.84773 38.4411 3.99007 38.3394C4.13425 38.2359 4.25626 38.1093 4.35608 37.9596C4.45775 37.808 4.52892 37.6342 4.56958 37.4383H5.25724C5.20548 37.7285 5.1112 37.9882 4.97441 38.2174C4.83762 38.4466 4.66756 38.6417 4.46422 38.8025C4.26088 38.9615 4.03258 39.0825 3.77933 39.1657C3.52793 39.2489 3.25897 39.2905 2.97245 39.2905C2.48813 39.2905 2.05742 39.1722 1.68032 38.9356C1.30322 38.699 1.00653 38.3625 0.790249 37.9263C0.573971 37.49 0.465831 36.9724 0.465831 36.3735C0.465831 35.7746 0.573971 35.257 0.790249 34.8207C1.00653 34.3845 1.30322 34.048 1.68032 33.8114C2.05742 33.5748 2.48813 33.4565 2.97245 33.4565C3.25897 33.4565 3.52793 33.4981 3.77933 33.5813C4.03258 33.6645 4.26088 33.7865 4.46422 33.9473C4.66756 34.1063 4.83762 34.3004 4.97441 34.5296C5.1112 34.757 5.20548 35.0167 5.25724 35.3088ZM8.79076 39.3016C8.40627 39.3016 8.06891 39.2101 7.77869 39.0271C7.49032 38.8441 7.2648 38.5881 7.10212 38.259C6.9413 37.93 6.86089 37.5455 6.86089 37.1055C6.86089 36.6619 6.9413 36.2746 7.10212 35.9437C7.2648 35.6128 7.49032 35.3559 7.77869 35.1729C8.06891 34.9899 8.40627 34.8984 8.79076 34.8984C9.17526 34.8984 9.51169 34.9899 9.80006 35.1729C10.0903 35.3559 10.3158 35.6128 10.4766 35.9437C10.6393 36.2746 10.7206 36.6619 10.7206 37.1055C10.7206 37.5455 10.6393 37.93 10.4766 38.259C10.3158 38.5881 10.0903 38.8441 9.80006 39.0271C9.51169 39.2101 9.17526 39.3016 8.79076 39.3016ZM8.79076 38.7138C9.08283 38.7138 9.32314 38.6389 9.51169 38.4892C9.70024 38.3394 9.83981 38.1426 9.93039 37.8986C10.021 37.6545 10.0663 37.3902 10.0663 37.1055C10.0663 36.8209 10.021 36.5556 9.93039 36.3097C9.83981 36.0639 9.70024 35.8652 9.51169 35.7136C9.32314 35.562 9.08283 35.4862 8.79076 35.4862C8.49869 35.4862 8.25838 35.562 8.06983 35.7136C7.88128 35.8652 7.74172 36.0639 7.65114 36.3097C7.56056 36.5556 7.51527 36.8209 7.51527 37.1055C7.51527 37.3902 7.56056 37.6545 7.65114 37.8986C7.74172 38.1426 7.88128 38.3394 8.06983 38.4892C8.25838 38.6389 8.49869 38.7138 8.79076 38.7138ZM13.1547 36.6508V39.2129H12.5004V34.9538H13.1326V35.6193H13.188C13.2878 35.403 13.4394 35.2293 13.6428 35.098C13.8461 34.9649 14.1086 34.8984 14.4302 34.8984C14.7186 34.8984 14.9709 34.9575 15.1872 35.0758C15.4035 35.1923 15.5717 35.3698 15.6919 35.6082C15.812 35.8448 15.8721 36.1443 15.8721 36.5066V39.2129H15.2177V36.551C15.2177 36.2164 15.1308 35.9557 14.9571 35.769C14.7833 35.5805 14.5448 35.4862 14.2417 35.4862C14.0328 35.4862 13.8461 35.5315 13.6816 35.6221C13.5189 35.7127 13.3904 35.8448 13.2962 36.0186C13.2019 36.1924 13.1547 36.4031 13.1547 36.6508ZM18.5031 36.6508V39.2129H17.8487V34.9538H18.4809V35.6193H18.5363C18.6362 35.403 18.7877 35.2293 18.9911 35.098C19.1944 34.9649 19.4569 34.8984 19.7786 34.8984C20.0669 34.8984 20.3193 34.9575 20.5355 35.0758C20.7518 35.1923 20.92 35.3698 21.0402 35.6082C21.1603 35.8448 21.2204 36.1443 21.2204 36.5066V39.2129H20.566V36.551C20.566 36.2164 20.4792 35.9557 20.3054 35.769C20.1316 35.5805 19.8932 35.4862 19.59 35.4862C19.3811 35.4862 19.1944 35.5315 19.0299 35.6221C18.8672 35.7127 18.7388 35.8448 18.6445 36.0186C18.5502 36.1924 18.5031 36.4031 18.5031 36.6508ZM24.9827 39.3016C24.5723 39.3016 24.2183 39.211 23.9207 39.0299C23.6249 38.8468 23.3967 38.5918 23.2358 38.2646C23.0769 37.9355 22.9974 37.5529 22.9974 37.1166C22.9974 36.6804 23.0769 36.2959 23.2358 35.9631C23.3967 35.6285 23.6203 35.3679 23.9068 35.1812C24.1952 34.9927 24.5317 34.8984 24.9161 34.8984C25.138 34.8984 25.357 34.9353 25.5733 35.0093C25.7896 35.0832 25.9865 35.2034 26.1639 35.3698C26.3414 35.5343 26.4828 35.7524 26.5882 36.0241C26.6935 36.2959 26.7462 36.6305 26.7462 37.0279V37.3052H23.4632V36.7395H26.0807C26.0807 36.4992 26.0327 36.2848 25.9365 36.0962C25.8423 35.9077 25.7073 35.7589 25.5317 35.6498C25.3579 35.5407 25.1528 35.4862 24.9161 35.4862C24.6555 35.4862 24.43 35.5509 24.2396 35.6803C24.051 35.8079 23.9059 35.9742 23.8043 36.1794C23.7026 36.3846 23.6517 36.6046 23.6517 36.8393V37.2164C23.6517 37.5381 23.7072 37.8107 23.8181 38.0344C23.9309 38.2562 24.0871 38.4254 24.2867 38.5418C24.4864 38.6565 24.7184 38.7138 24.9827 38.7138C25.1546 38.7138 25.3099 38.6897 25.4485 38.6417C25.589 38.5918 25.7101 38.5178 25.8118 38.4198C25.9134 38.32 25.992 38.1962 26.0475 38.0483L26.6797 38.2257C26.6131 38.4402 26.5013 38.6287 26.3441 38.7914C26.187 38.9522 25.9929 39.0779 25.7619 39.1685C25.5308 39.2572 25.2711 39.3016 24.9827 39.3016ZM30.2527 39.3016C29.8534 39.3016 29.5096 39.2073 29.2212 39.0188C28.9328 38.8302 28.711 38.5705 28.5557 38.2396C28.4005 37.9087 28.3228 37.5307 28.3228 37.1055C28.3228 36.673 28.4023 36.2912 28.5613 35.9604C28.7221 35.6276 28.9458 35.3679 29.2323 35.1812C29.5207 34.9927 29.8571 34.8984 30.2416 34.8984C30.5411 34.8984 30.8109 34.9538 31.0513 35.0647C31.2916 35.1757 31.4884 35.3309 31.6419 35.5306C31.7953 35.7302 31.8905 35.9631 31.9275 36.2293H31.2731C31.2232 36.0352 31.1123 35.8633 30.9403 35.7136C30.7703 35.562 30.5411 35.4862 30.2527 35.4862C29.9976 35.4862 29.7739 35.5528 29.5817 35.6859C29.3913 35.8171 29.2425 36.0029 29.1352 36.2432C29.0299 36.4816 28.9772 36.7617 28.9772 37.0833C28.9772 37.4124 29.029 37.6989 29.1325 37.9429C29.2378 38.1869 29.3857 38.3764 29.5761 38.5113C29.7684 38.6463 29.9939 38.7138 30.2527 38.7138C30.4228 38.7138 30.5771 38.6842 30.7157 38.625C30.8544 38.5659 30.9718 38.4808 31.0679 38.3699C31.164 38.259 31.2324 38.1259 31.2731 37.9706H31.9275C31.8905 38.222 31.799 38.4485 31.653 38.65C31.5088 38.8496 31.3174 39.0086 31.079 39.1269C30.8424 39.2434 30.5669 39.3016 30.2527 39.3016ZM35.5171 34.9538V35.5084H33.31V34.9538H35.5171ZM33.9533 33.9334H34.6077V37.9928C34.6077 38.1777 34.6345 38.3163 34.6881 38.4087C34.7435 38.4993 34.8138 38.5603 34.8988 38.5918C34.9857 38.6213 35.0772 38.6361 35.1733 38.6361C35.2454 38.6361 35.3046 38.6324 35.3508 38.625C35.397 38.6158 35.434 38.6084 35.4617 38.6028L35.5948 39.1907C35.5504 39.2073 35.4885 39.224 35.409 39.2406C35.3295 39.2591 35.2288 39.2683 35.1068 39.2683C34.9219 39.2683 34.7408 39.2286 34.5633 39.1491C34.3877 39.0696 34.2416 38.9485 34.1252 38.7858C34.0106 38.6232 33.9533 38.418 33.9533 38.1703V33.9334ZM37.7592 39.2572C37.6224 39.2572 37.5051 39.2082 37.4071 39.1103C37.3091 39.0123 37.2601 38.8949 37.2601 38.7581C37.2601 38.6213 37.3091 38.5039 37.4071 38.406C37.5051 38.308 37.6224 38.259 37.7592 38.259C37.896 38.259 38.0134 38.308 38.1114 38.406C38.2093 38.5039 38.2583 38.6213 38.2583 38.7581C38.2583 38.8487 38.2352 38.9319 38.189 39.0077C38.1446 39.0835 38.0846 39.1445 38.0088 39.1907C37.9348 39.235 37.8517 39.2572 37.7592 39.2572ZM47.8486 35.3088H47.161C47.1203 35.111 47.0491 34.9372 46.9475 34.7875C46.8477 34.6377 46.7256 34.512 46.5815 34.4104C46.4391 34.3068 46.2811 34.2292 46.1073 34.1774C45.9336 34.1257 45.7524 34.0998 45.5638 34.0998C45.22 34.0998 44.9085 34.1867 44.6294 34.3605C44.3521 34.5342 44.1312 34.7902 43.9667 35.1285C43.804 35.4668 43.7227 35.8818 43.7227 36.3735C43.7227 36.8652 43.804 37.2802 43.9667 37.6185C44.1312 37.9568 44.3521 38.2128 44.6294 38.3866C44.9085 38.5603 45.22 38.6472 45.5638 38.6472C45.7524 38.6472 45.9336 38.6213 46.1073 38.5696C46.2811 38.5178 46.4391 38.4411 46.5815 38.3394C46.7256 38.2359 46.8477 38.1093 46.9475 37.9596C47.0491 37.808 47.1203 37.6342 47.161 37.4383H47.8486C47.7969 37.7285 47.7026 37.9882 47.5658 38.2174C47.429 38.4466 47.259 38.6417 47.0556 38.8025C46.8523 38.9615 46.624 39.0825 46.3707 39.1657C46.1193 39.2489 45.8504 39.2905 45.5638 39.2905C45.0795 39.2905 44.6488 39.1722 44.2717 38.9356C43.8946 38.699 43.5979 38.3625 43.3816 37.9263C43.1654 37.49 43.0572 36.9724 43.0572 36.3735C43.0572 35.7746 43.1654 35.257 43.3816 34.8207C43.5979 34.3845 43.8946 34.048 44.2717 33.8114C44.6488 33.5748 45.0795 33.4565 45.5638 33.4565C45.8504 33.4565 46.1193 33.4981 46.3707 33.5813C46.624 33.6645 46.8523 33.7865 47.0556 33.9473C47.259 34.1063 47.429 34.3004 47.5658 34.5296C47.7026 34.757 47.7969 35.0167 47.8486 35.3088ZM51.3822 39.3016C50.9977 39.3016 50.6603 39.2101 50.3701 39.0271C50.0817 38.8441 49.8562 38.5881 49.6935 38.259C49.5327 37.93 49.4523 37.5455 49.4523 37.1055C49.4523 36.6619 49.5327 36.2746 49.6935 35.9437C49.8562 35.6128 50.0817 35.3559 50.3701 35.1729C50.6603 34.9899 50.9977 34.8984 51.3822 34.8984C51.7667 34.8984 52.1031 34.9899 52.3915 35.1729C52.6817 35.3559 52.9072 35.6128 53.068 35.9437C53.2307 36.2746 53.312 36.6619 53.312 37.1055C53.312 37.5455 53.2307 37.93 53.068 38.259C52.9072 38.5881 52.6817 38.8441 52.3915 39.0271C52.1031 39.2101 51.7667 39.3016 51.3822 39.3016ZM51.3822 38.7138C51.6742 38.7138 51.9145 38.6389 52.1031 38.4892C52.2916 38.3394 52.4312 38.1426 52.5218 37.8986C52.6124 37.6545 52.6576 37.3902 52.6576 37.1055C52.6576 36.8209 52.6124 36.5556 52.5218 36.3097C52.4312 36.0639 52.2916 35.8652 52.1031 35.7136C51.9145 35.562 51.6742 35.4862 51.3822 35.4862C51.0901 35.4862 50.8498 35.562 50.6612 35.7136C50.4727 35.8652 50.3331 36.0639 50.2425 36.3097C50.152 36.5556 50.1067 36.8209 50.1067 37.1055C50.1067 37.3902 50.152 37.6545 50.2425 37.8986C50.3331 38.1426 50.4727 38.3394 50.6612 38.4892C50.8498 38.6389 51.0901 38.7138 51.3822 38.7138ZM55.7461 36.6508V39.2129H55.0918V34.9538H55.724V35.6193H55.7794C55.8792 35.403 56.0308 35.2293 56.2342 35.098C56.4375 34.9649 56.7 34.8984 57.0216 34.8984C57.31 34.8984 57.5623 34.9575 57.7786 35.0758C57.9949 35.1923 58.1631 35.3698 58.2833 35.6082C58.4034 35.8448 58.4635 36.1443 58.4635 36.5066V39.2129H57.8091V36.551C57.8091 36.2164 57.7222 35.9557 57.5485 35.769C57.3747 35.5805 57.1362 35.4862 56.8331 35.4862C56.6242 35.4862 56.4375 35.5315 56.273 35.6221C56.1103 35.7127 55.9818 35.8448 55.8875 36.0186C55.7933 36.1924 55.7461 36.4031 55.7461 36.6508ZM62.2923 34.9538V35.5084H60.0852V34.9538H62.2923ZM60.7284 33.9334H61.3828V37.9928C61.3828 38.1777 61.4096 38.3163 61.4632 38.4087C61.5187 38.4993 61.5889 38.5603 61.674 38.5918C61.7609 38.6213 61.8524 38.6361 61.9485 38.6361C62.0206 38.6361 62.0797 38.6324 62.1259 38.625C62.1722 38.6158 62.2091 38.6084 62.2369 38.6028L62.37 39.1907C62.3256 39.2073 62.2637 39.224 62.1842 39.2406C62.1047 39.2591 62.0039 39.2683 61.8819 39.2683C61.6971 39.2683 61.5159 39.2286 61.3385 39.1491C61.1629 39.0696 61.0168 38.9485 60.9004 38.7858C60.7858 38.6232 60.7284 38.418 60.7284 38.1703V33.9334ZM64.0575 39.2129V34.9538H64.6897V35.5971H64.734C64.8117 35.3864 64.9522 35.2154 65.1555 35.0842C65.3588 34.9529 65.5881 34.8873 65.8432 34.8873C65.8912 34.8873 65.9513 34.8882 66.0234 34.8901C66.0955 34.8919 66.15 34.8947 66.187 34.8984V35.5638C66.1648 35.5583 66.114 35.55 66.0345 35.5389C65.9569 35.526 65.8746 35.5195 65.7877 35.5195C65.5807 35.5195 65.3958 35.5629 65.2331 35.6498C65.0723 35.7348 64.9448 35.8531 64.8505 36.0047C64.7581 36.1545 64.7119 36.3254 64.7119 36.5177V39.2129H64.0575ZM69.3441 39.3016C68.9596 39.3016 68.6223 39.2101 68.332 39.0271C68.0437 38.8441 67.8181 38.5881 67.6555 38.259C67.4946 37.93 67.4142 37.5455 67.4142 37.1055C67.4142 36.6619 67.4946 36.2746 67.6555 35.9437C67.8181 35.6128 68.0437 35.3559 68.332 35.1729C68.6223 34.9899 68.9596 34.8984 69.3441 34.8984C69.7286 34.8984 70.065 34.9899 70.3534 35.1729C70.6436 35.3559 70.8692 35.6128 71.03 35.9437C71.1926 36.2746 71.274 36.6619 71.274 37.1055C71.274 37.5455 71.1926 37.93 71.03 38.259C70.8692 38.5881 70.6436 38.8441 70.3534 39.0271C70.065 39.2101 69.7286 39.3016 69.3441 39.3016ZM69.3441 38.7138C69.6362 38.7138 69.8765 38.6389 70.065 38.4892C70.2536 38.3394 70.3932 38.1426 70.4837 37.8986C70.5743 37.6545 70.6196 37.3902 70.6196 37.1055C70.6196 36.8209 70.5743 36.5556 70.4837 36.3097C70.3932 36.0639 70.2536 35.8652 70.065 35.7136C69.8765 35.562 69.6362 35.4862 69.3441 35.4862C69.052 35.4862 68.8117 35.562 68.6232 35.7136C68.4346 35.8652 68.2951 36.0639 68.2045 36.3097C68.1139 36.5556 68.0686 36.8209 68.0686 37.1055C68.0686 37.3902 68.1139 37.6545 68.2045 37.8986C68.2951 38.1426 68.4346 38.3394 68.6232 38.4892C68.8117 38.6389 69.052 38.7138 69.3441 38.7138ZM73.7081 33.5342V39.2129H73.0537V33.5342H73.7081ZM76.1644 39.2572C76.0276 39.2572 75.9102 39.2082 75.8122 39.1103C75.7143 39.0123 75.6653 38.8949 75.6653 38.7581C75.6653 38.6213 75.7143 38.5039 75.8122 38.406C75.9102 38.308 76.0276 38.259 76.1644 38.259C76.3012 38.259 76.4186 38.308 76.5165 38.406C76.6145 38.5039 76.6635 38.6213 76.6635 38.7581C76.6635 38.8487 76.6404 38.9319 76.5942 39.0077C76.5498 39.0835 76.4897 39.1445 76.4139 39.1907C76.34 39.235 76.2568 39.2572 76.1644 39.2572ZM86.2538 35.3088H85.5661C85.5255 35.111 85.4543 34.9372 85.3526 34.7875C85.2528 34.6377 85.1308 34.512 84.9866 34.4104C84.8443 34.3068 84.6862 34.2292 84.5125 34.1774C84.3387 34.1257 84.1575 34.0998 83.969 34.0998C83.6252 34.0998 83.3137 34.1867 83.0346 34.3605C82.7573 34.5342 82.5364 34.7902 82.3719 35.1285C82.2092 35.4668 82.1278 35.8818 82.1278 36.3735C82.1278 36.8652 82.2092 37.2802 82.3719 37.6185C82.5364 37.9568 82.7573 38.2128 83.0346 38.3866C83.3137 38.5603 83.6252 38.6472 83.969 38.6472C84.1575 38.6472 84.3387 38.6213 84.5125 38.5696C84.6862 38.5178 84.8443 38.4411 84.9866 38.3394C85.1308 38.2359 85.2528 38.1093 85.3526 37.9596C85.4543 37.808 85.5255 37.6342 85.5661 37.4383H86.2538C86.202 37.7285 86.1077 37.9882 85.971 38.2174C85.8342 38.4466 85.6641 38.6417 85.4608 38.8025C85.2574 38.9615 85.0291 39.0825 84.7759 39.1657C84.5245 39.2489 84.2555 39.2905 83.969 39.2905C83.4847 39.2905 83.054 39.1722 82.6769 38.9356C82.2998 38.699 82.0031 38.3625 81.7868 37.9263C81.5705 37.49 81.4624 36.9724 81.4624 36.3735C81.4624 35.7746 81.5705 35.257 81.7868 34.8207C82.0031 34.3845 82.2998 34.048 82.6769 33.8114C83.054 33.5748 83.4847 33.4565 83.969 33.4565C84.2555 33.4565 84.5245 33.4981 84.7759 33.5813C85.0291 33.6645 85.2574 33.7865 85.4608 33.9473C85.6641 34.1063 85.8342 34.3004 85.971 34.5296C86.1077 34.757 86.202 35.0167 86.2538 35.3088ZM89.7873 39.3016C89.4028 39.3016 89.0655 39.2101 88.7752 39.0271C88.4869 38.8441 88.2613 38.5881 88.0987 38.259C87.9378 37.93 87.8574 37.5455 87.8574 37.1055C87.8574 36.6619 87.9378 36.2746 88.0987 35.9437C88.2613 35.6128 88.4869 35.3559 88.7752 35.1729C89.0655 34.9899 89.4028 34.8984 89.7873 34.8984C90.1718 34.8984 90.5082 34.9899 90.7966 35.1729C91.0868 35.3559 91.3124 35.6128 91.4732 35.9437C91.6358 36.2746 91.7172 36.6619 91.7172 37.1055C91.7172 37.5455 91.6358 37.93 91.4732 38.259C91.3124 38.5881 91.0868 38.8441 90.7966 39.0271C90.5082 39.2101 90.1718 39.3016 89.7873 39.3016ZM89.7873 38.7138C90.0794 38.7138 90.3197 38.6389 90.5082 38.4892C90.6968 38.3394 90.8364 38.1426 90.9269 37.8986C91.0175 37.6545 91.0628 37.3902 91.0628 37.1055C91.0628 36.8209 91.0175 36.5556 90.9269 36.3097C90.8364 36.0639 90.6968 35.8652 90.5082 35.7136C90.3197 35.562 90.0794 35.4862 89.7873 35.4862C89.4952 35.4862 89.2549 35.562 89.0664 35.7136C88.8778 35.8652 88.7383 36.0639 88.6477 36.3097C88.5571 36.5556 88.5118 36.8209 88.5118 37.1055C88.5118 37.3902 88.5571 37.6545 88.6477 37.8986C88.7383 38.1426 88.8778 38.3394 89.0664 38.4892C89.2549 38.6389 89.4952 38.7138 89.7873 38.7138ZM93.4969 39.2129V34.9538H94.1291V35.6193H94.1846C94.2733 35.3919 94.4166 35.2154 94.6143 35.0897C94.8121 34.9621 95.0497 34.8984 95.327 34.8984C95.6079 34.8984 95.8418 34.9621 96.0285 35.0897C96.217 35.2154 96.364 35.3919 96.4694 35.6193H96.5137C96.6228 35.3993 96.7864 35.2246 97.0045 35.0952C97.2226 34.964 97.4842 34.8984 97.7892 34.8984C98.17 34.8984 98.4815 35.0176 98.7236 35.2561C98.9658 35.4927 99.0869 35.8615 99.0869 36.3624V39.2129H98.4325V36.3624C98.4325 36.0482 98.3465 35.8236 98.1746 35.6886C98.0027 35.5537 97.8003 35.4862 97.5674 35.4862C97.2679 35.4862 97.0359 35.5768 96.8714 35.7579C96.7069 35.9373 96.6246 36.1646 96.6246 36.4401V39.2129H95.9592V36.2959C95.9592 36.0537 95.8806 35.8587 95.7235 35.7108C95.5663 35.5611 95.3639 35.4862 95.1162 35.4862C94.9462 35.4862 94.7872 35.5315 94.6393 35.6221C94.4933 35.7127 94.375 35.8384 94.2844 35.9992C94.1957 36.1582 94.1513 36.3421 94.1513 36.551V39.2129H93.4969ZM101.064 40.81V34.9538H101.696V35.6304H101.774C101.822 35.5565 101.889 35.4622 101.974 35.3476C102.061 35.2311 102.184 35.1276 102.345 35.037C102.508 34.9446 102.728 34.8984 103.005 34.8984C103.364 34.8984 103.68 34.988 103.953 35.1673C104.227 35.3466 104.441 35.6008 104.594 35.9299C104.747 36.2589 104.824 36.6471 104.824 37.0944C104.824 37.5455 104.747 37.9364 104.594 38.2673C104.441 38.5964 104.228 38.8515 103.956 39.0326C103.684 39.2119 103.371 39.3016 103.016 39.3016C102.743 39.3016 102.524 39.2563 102.359 39.1657C102.195 39.0733 102.068 38.9689 101.979 38.8524C101.89 38.7341 101.822 38.6361 101.774 38.5585H101.719V40.81H101.064ZM101.707 37.0833C101.707 37.405 101.755 37.6887 101.849 37.9346C101.943 38.1786 102.081 38.3699 102.262 38.5086C102.443 38.6454 102.665 38.7138 102.927 38.7138C103.201 38.7138 103.429 38.6417 103.612 38.4975C103.797 38.3514 103.936 38.1555 104.028 37.9096C104.123 37.6619 104.17 37.3865 104.17 37.0833C104.17 36.7839 104.123 36.514 104.031 36.2737C103.94 36.0315 103.803 35.8402 103.618 35.6997C103.435 35.5574 103.205 35.4862 102.927 35.4862C102.661 35.4862 102.438 35.5537 102.256 35.6886C102.075 35.8217 101.939 36.0084 101.846 36.2487C101.754 36.4872 101.707 36.7654 101.707 37.0833ZM107.258 33.5342V39.2129H106.603V33.5342H107.258ZM109.658 40.81C109.547 40.81 109.449 40.8008 109.362 40.7823C109.275 40.7656 109.215 40.749 109.181 40.7324L109.348 40.1556C109.507 40.1963 109.647 40.2111 109.769 40.2C109.891 40.1889 109.999 40.1344 110.094 40.0364C110.19 39.9403 110.278 39.7841 110.357 39.5678L110.479 39.235L108.904 34.9538H109.614L110.79 38.3477H110.834L112.01 34.9538H112.72L110.912 39.834C110.83 40.0539 110.73 40.236 110.609 40.3802C110.489 40.5262 110.35 40.6344 110.191 40.7046C110.034 40.7749 109.856 40.81 109.658 40.81Z" fill="#A4A6AF"/>
<defs>
<linearGradient id="paint0_linear_49_1316" x1="50.5664" y1="28.3088" x2="50.5664" y2="-1.43921" gradientUnits="userSpaceOnUse">
<stop offset="0.100962" stop-color="#320F4F"/>
<stop offset="1" stop-color="#38C0EE"/>
</linearGradient>
</defs>
</svg>
